 <svg version="1.0" xmlns="http://www.w3.org/2000/svg" width="700.000000pt" height="817.000000pt" viewBox="0 0 700.000000 817.000000" preserveAspectRatio="xMidYMid meet">
<metadata>
Created by potrace 1.12, written by Peter Selinger 2001-2015
</metadata>
<g transform="translate(0.000000,817.000000) scale(0.100000,-0.100000)" fill="#000000" stroke="none">
<path d="M1594 8160 c-160 -20 -372 -79 -458 -128 -98 -54 -110 -105 -52 -219
196 -389 580 -727 1006 -886 111 -41 377 -108 540 -136 217 -37 617 -71 838
-71 56 0 102 -2 102 -5 0 -3 -7 -22 -15 -43 -33 -78 -103 -391 -120 -535 -4
-37 -12 -60 -21 -64 -8 -3 -155 40 -327 96 -512 165 -564 175 -987 175 -326 0
-364 -4 -580 -56 -187 -45 -319 -92 -475 -168 -270 -131 -455 -293 -638 -555
-184 -265 -330 -706 -382 -1154 -18 -152 -20 -695 -4 -954 46 -753 389 -1648
883 -2302 455 -604 1016 -1037 1471 -1137 40 -9 133 -13 275 -12 242 0 359 13
645 72 255 52 352 51 655 -6 480 -90 691 -92 911 -12 156 57 366 189 544 343
138 119 443 429 559 567 94 113 269 366 358 520 308 527 536 1199 632 1860 44
299 47 969 7 1190 -151 822 -540 1423 -1099 1701 -125 61 -284 115 -385 128
-115 16 -475 13 -642 -4 -284 -30 -386 -54 -835 -199 -182 -59 -298 -92 -304
-86 -12 12 17 190 56 339 79 307 208 539 413 746 112 113 225 192 358 250 92
40 131 74 142 124 14 65 -51 141 -121 141 -67 0 -229 -72 -374 -168 -101 -67
-285 -248 -350 -344 -25 -37 -48 -68 -51 -68 -3 0 -40 51 -82 113 -141 210
-364 447 -535 570 -244 175 -630 324 -947 367 -107 14 -522 21 -611 10z m506
-260 c136 -13 360 -65 497 -116 336 -125 580 -315 820 -637 91 -123 103 -145
82 -158 -18 -13 -316 -3 -529 17 -389 36 -716 117 -951 234 -101 51 -237 144
-332 227 -120 105 -317 334 -317 368 0 17 47 32 168 55 114 21 382 26 562 10z
m3422 -1804 c495 -127 922 -619 1112 -1281 49 -174 74 -301 87 -460 16 -182
16 -661 0 -795 -99 -862 -422 -1724 -866 -2310 -317 -419 -702 -767 -1011
-916 -138 -66 -200 -77 -379 -70 -159 6 -214 13 -530 71 -266 50 -411 53 -595
13 -304 -65 -574 -94 -800 -86 -147 6 -217 26 -388 112 -213 107 -403 248
-625 465 -290 283 -504 561 -721 939 -194 338 -323 664 -430 1087 -96 380
-110 542 -103 1154 4 376 7 439 26 538 88 476 240 809 484 1060 165 170 359
289 598 367 233 76 441 106 727 106 322 1 462 -25 863 -155 355 -116 397 -126
536 -132 145 -7 223 8 483 92 610 198 829 238 1250 230 158 -3 199 -7 282 -29z"></path>
</g>
</svg>